<?xml version="1.0" encoding="utf-8"?>
<!-- Generator: Adobe Illustrator 15.0.2, SVG Export Plug-In . SVG Version: 6.00 Build 0)  -->
<!DOCTYPE svg PUBLIC "-//W3C//DTD SVG 1.1//EN" "http://www.w3.org/Graphics/SVG/1.1/DTD/svg11.dtd">
<svg version="1.1" id="Layer_1" xmlns="http://www.w3.org/2000/svg" xmlns:xlink="http://www.w3.org/1999/xlink" x="0px" y="0px"
	 width="512px" height="512px" viewBox="0 0 512 512" enable-background="new 0 0 512 512" xml:space="preserve">
<path d="M103.111,221.723c40.958,80.5,106.806,146.347,187.444,187.305l62.583-62.722c7.819-7.819,19.056-10.083,28.861-6.973
	c31.861,10.528,66.139,16.223,101.556,16.223C499.333,355.556,512,368.223,512,384v99.556C512,499.333,499.333,512,483.556,512
	C216.465,512,0,295.542,0,28.444C0,12.66,12.799,0,28.444,0H128c15.785,0,28.444,12.66,28.444,28.444
	c0,35.417,5.688,69.688,16.216,101.549c3.125,9.812,0.854,21.049-6.973,28.868L103.111,221.723z"/>
</svg>
