<?xml version="1.0" standalone="no"?>
<!DOCTYPE svg PUBLIC "-//W3C//DTD SVG 20010904//EN"
 "http://www.w3.org/TR/2001/REC-SVG-20010904/DTD/svg10.dtd">
<svg version="1.0" xmlns="http://www.w3.org/2000/svg"
 width="1000.000000pt" height="1000.000000pt" viewBox="0 0 1000.000000 1000.000000"
 preserveAspectRatio="xMidYMid meet">
<metadata>
Created by potrace 1.11, written by Peter Selinger 2001-2013
</metadata>
<g transform="translate(0.000000,1000.000000) scale(0.100000,-0.100000)"
fill="#000000" stroke="none">
<path d="M6343 7710 c-85 -18 -155 -71 -184 -138 -30 -70 -24 -201 12 -274 9
-17 -5 -48 -65 -148 -50 -83 -147 -250 -171 -295 -12 -22 -32 -57 -44 -77
l-23 -38 -461 0 c-463 0 -519 -4 -552 -36 -13 -14 -18 -13 -47 8 -33 23 -38
23 -368 28 l-334 5 -43 70 c-24 39 -48 81 -55 95 -7 14 -31 57 -54 95 -22 39
-67 113 -98 166 l-56 96 20 48 c28 65 28 200 0 255 -103 202 -475 180 -674
-41 -52 -57 -80 -106 -91 -156 -3 -18 -11 -35 -16 -38 -5 -4 -60 -19 -121 -35
-62 -16 -135 -38 -163 -48 -48 -19 -195 -98 -205 -111 -3 -3 -24 -19 -48 -34
-24 -15 -61 -44 -84 -65 -37 -34 -160 -183 -183 -223 -5 -10 -55 -84 -110
-164 -235 -344 -384 -512 -510 -577 -126 -64 -254 -85 -710 -118 -395 -29
-624 -91 -734 -201 l-43 -43 4 -81 c4 -78 6 -83 72 -200 37 -66 79 -138 92
-160 22 -37 54 -92 95 -165 9 -16 24 -41 35 -57 18 -28 25 -39 77 -130 15 -26
35 -61 45 -78 38 -66 138 -235 192 -325 31 -52 68 -115 82 -140 14 -25 59
-101 98 -170 40 -69 81 -138 90 -155 48 -83 197 -347 225 -400 166 -313 225
-395 294 -410 38 -8 131 3 131 16 0 5 7 9 15 9 9 0 53 18 100 40 47 22 87 40
90 40 3 0 5 -213 4 -474 -1 -531 -3 -514 71 -561 l40 -25 3034 0 c2330 0 3042
3 3063 12 39 16 83 68 84 98 1 14 0 226 -1 473 -2 394 0 447 13 447 9 0 57
-21 108 -46 88 -44 97 -46 155 -41 43 3 71 11 90 26 26 20 85 109 135 201 22
41 78 136 173 295 19 33 49 85 66 115 16 30 43 76 58 102 15 26 49 86 77 135
27 48 54 96 60 105 5 10 86 149 179 310 161 279 226 390 254 433 6 11 17 31
22 44 6 13 19 35 29 50 34 48 208 352 261 456 25 49 30 72 30 128 0 67 -1 68
-44 112 -48 48 -111 83 -203 114 -177 60 -336 84 -668 102 -204 11 -446 47
-469 70 -6 5 -17 9 -25 9 -29 0 -156 69 -201 109 -25 22 -48 41 -51 41 -18 1
-161 186 -273 353 -69 103 -145 213 -168 244 -24 30 -53 69 -65 86 -88 121
-243 261 -353 320 -93 49 -287 114 -370 124 -47 5 -48 6 -54 47 -28 175 -244
336 -471 351 -38 2 -89 0 -112 -5z"/>
</g>
</svg>
